<?xml version="1.0" encoding="iso-8859-1"?>
<!-- Generator: Adobe Illustrator 18.1.1, SVG Export Plug-In . SVG Version: 6.00 Build 0)  -->
<svg version="1.1" id="Capa_1" xmlns="http://www.w3.org/2000/svg" xmlns:xlink="http://www.w3.org/1999/xlink" x="0px" y="0px"
	 viewBox="0 0 98.83 98.83" style="enable-background:new 0 0 98.83 98.83;" xml:space="preserve">
<g>
	<g>
		<polygon style="fill:#010002;" points="63.394,14.877 57.124,23.152 66.715,41.407 62.041,64.981 65.334,70.199 85.017,66.62 
			88.596,58.718 88.596,41.271 92.175,22.779 88.596,18.456 		"/>
		<polygon style="fill:#010002;" points="62.836,4.81 61.157,0 54.783,0 52.994,6.152 56.573,17.733 61.411,13.371 		"/>
		<polygon style="fill:#010002;" points="69.936,13.786 72.402,6.732 71.038,2.044 66.182,2.044 64.901,5.708 66.024,13.059 		"/>
		<polygon style="fill:#010002;" points="78.014,14.727 80.315,8.142 79.041,3.765 74.51,3.765 73.315,7.186 74.363,14.047 		"/>
		<polygon style="fill:#010002;" points="85.747,16.001 87.812,10.1 86.671,6.181 82.609,6.181 81.539,9.244 82.476,15.393 		"/>
		<polygon style="fill:#010002;" points="92.916,10.207 89.802,10.207 88.983,12.555 89.702,17.268 92.207,17.733 93.786,13.21 		
			"/>
		<polygon style="fill:#010002;" points="35.436,43.508 10.234,47.087 6.655,51.41 10.234,69.902 10.234,87.349 13.813,95.251 
			33.496,98.83 36.789,93.612 32.115,70.038 41.706,51.782 		"/>
		<polygon style="fill:#010002;" points="37.673,28.631 35.994,33.441 37.419,42.001 42.257,46.364 45.836,34.783 44.047,28.631 		
			"/>
		<polygon style="fill:#010002;" points="32.806,41.69 33.929,34.339 32.648,30.674 27.792,30.674 26.428,35.363 28.894,42.417 		
			"/>
		<polygon style="fill:#010002;" points="24.467,42.678 25.515,35.817 24.32,32.396 19.789,32.396 18.515,36.773 20.816,43.358 		
			"/>
		<polygon style="fill:#010002;" points="16.354,44.023 17.291,37.875 16.221,34.811 12.159,34.811 11.017,38.73 13.082,44.632 		
			"/>
		<polygon style="fill:#010002;" points="9.847,41.185 9.028,38.838 5.914,38.838 5.044,41.84 6.623,46.364 9.128,45.899 		"/>
	</g>
</g>
<g>
</g>
<g>
</g>
<g>
</g>
<g>
</g>
<g>
</g>
<g>
</g>
<g>
</g>
<g>
</g>
<g>
</g>
<g>
</g>
<g>
</g>
<g>
</g>
<g>
</g>
<g>
</g>
<g>
</g>
</svg>
