<?xml version="1.0" encoding="iso-8859-1"?>
<!-- Generator: Adobe Illustrator 16.0.0, SVG Export Plug-In . SVG Version: 6.00 Build 0)  -->
<!DOCTYPE svg PUBLIC "-//W3C//DTD SVG 1.1//EN" "http://www.w3.org/Graphics/SVG/1.1/DTD/svg11.dtd">
<svg xmlns="http://www.w3.org/2000/svg" xmlns:xlink="http://www.w3.org/1999/xlink" version="1.1" id="Capa_1" x="0px" y="0px" width="512px" height="512px" viewBox="0 0 221.936 221.937" style="enable-background:new 0 0 221.936 221.937;" xml:space="preserve">
<g>
	<path d="M221.435,68.451c0,0-3.889-39.845-9.315-45.794l-2.323-13.456l-8.89,12.082c0,0-36.569-11.73-57.269,42.082   c0,0-21.078,37.383-58.638,25.526c-11.869-3.742-22.074-13.799-47.603,14.49c0,0-46.237,0-35.887,57.964   c0,0,17.251-8.287,22.074-31.741c0,0,3.449-17.936,12.427-15.876c0,0-6.212,28.289,28.965,42.776c0,0,0.698,8.967-4.823,13.11   c0,0-6.906,10.35,13.793,17.938c0,0,20.442,8.961,24.58,16.728c0,0,4.146,2.589,9.835,1.549c0,0-2.329,6.727,7.506,6.727   c0,0,8.541,1.301,8.541-3.104c0,0-2.843-7.24-8.281-8.021c0,0-6.978-9.836-16.293-10.61c0,0-15.779-1.809-15.265-16.816   c0,0,10.09-17.082,7.758-32.083c0,0,53.04,11.124,69.602-1.555c0,0,1.295,5.421,5.94,5.172l0.515,4.149   c0,0-3.104,0.254-4.397,3.617c0,0-0.774,2.329,3.877,2.069v4.923c0,0,0.261,4.404,8.541-1.034c0,0,15.782-2.074,20.954-11.384   c0,0,22.52-9.575,15.781-20.18c0,0-4.409-9.835-15.007-7.24l-11.385,0.514c0,0,6.473-11.124-1.288-21.213   c0,0,7.761-27.683,5.952-43.985c0,0,5.42,13.716,12.158,15.782c0,0-0.774,10.089,12.158,9.052   C215.744,80.604,224.024,79.823,221.435,68.451z M195.31,136.744c-3.624,5.958-15.776,8.724-15.776,8.724   C181.59,141.496,195.31,136.744,195.31,136.744z" fill="#FFFFFF"/>
</g>
<g>
</g>
<g>
</g>
<g>
</g>
<g>
</g>
<g>
</g>
<g>
</g>
<g>
</g>
<g>
</g>
<g>
</g>
<g>
</g>
<g>
</g>
<g>
</g>
<g>
</g>
<g>
</g>
<g>
</g>
</svg>
