<?xml version="1.0" ?><!DOCTYPE svg  PUBLIC '-//W3C//DTD SVG 1.1//EN'  'http://www.w3.org/Graphics/SVG/1.1/DTD/svg11.dtd'><svg enable-background="new 0 0 512 512" id="Layer_1" version="1.1" viewBox="0 0 512 512" xml:space="preserve" xmlns="http://www.w3.org/2000/svg" xmlns:xlink="http://www.w3.org/1999/xlink"><g><path d="M259,507.2C120.5,507.9,6.7,392.7,9.9,252.1c3-134,114-245.1,252.4-243.4c136.6,1.6,249.4,115.4,245.9,255.9   C504.7,398.1,394.8,507.8,259,507.2z M477.8,258.1C476.9,135,379.3,40.1,263,38C142.7,35.8,40.3,132.7,40.4,258.1   C40.5,381.4,139.1,476,255.2,478C375.2,480,476.8,383.5,477.8,258.1z"/><path d="M326,281.1c7.4,0,13.8,0,20.7,0c0,42.7,0,85.2,0,128.2c-67.6,0-135.3,0-203.3,0c0-42.7,0-85.2,0-128c6.8,0,13.5,0,20.9,0   c0,35.8,0,71.4,0,107.3c54.1,0,107.7,0,161.8,0C326,352.7,326,317.2,326,281.1z"/><path d="M304.9,341.6c0,8.8,0,17.1,0,25.8c-40.9,0-81.6,0-122.7,0c0-8.5,0-17,0-25.8C223.1,341.6,263.8,341.6,304.9,341.6z"/><path d="M388.6,218.4c-9,1.5-17.2,2.9-26,4.4c-7-40.6-14-80.8-21.1-121.6c8.8-1.5,17.1-2.9,26-4.5   C374.6,137.4,381.6,177.7,388.6,218.4z"/><path d="M308.2,307.4c-0.8,8.9-1.6,17.3-2.4,26.3c-41.1-3.8-81.7-7.6-122.9-11.4c0.8-8.9,1.6-17.3,2.4-26.2   C226.3,299.9,267,303.7,308.2,307.4z"/><path d="M225.5,180.2c35.4,20.9,70.5,41.6,106.2,62.7c-4.4,7.6-8.7,15-13.3,22.8c-35.6-21-70.8-41.7-106.4-62.7   C216.6,195.2,220.9,187.8,225.5,180.2z"/><path d="M190.2,266.5c2.2-8.5,4.4-16.6,6.7-25.5c39.6,10.7,79,21.2,119.1,32c-2.2,8.5-4.4,16.7-6.7,25.5   C269.6,287.8,230.1,277.2,190.2,266.5z"/><path d="M357.9,224.4c-7.4,5-14.3,9.8-21.7,14.9c-23.2-34-46.2-67.8-69.6-102c7.3-4.9,14.4-9.8,21.8-14.8   C311.6,156.5,334.6,190.3,357.9,224.4z"/></g></svg>